<svg xmlns="http://www.w3.org/2000/svg" width="134" height="47" viewBox="0 0 140.7 49.8" fill="#D4196E"><path class="st2" d="M0 37.9V10.6h3.4v27.3H0zM8.2 14v-3.4h3.4V14H8.2zm0 23.9V17.4h3.4v20.5H8.2zm31.9 0V25.3c0-1.3-.4-2.4-1.3-3.3-.9-1-1.9-1.4-3.2-1.4-1.4 0-2.4.4-3.2 1.3-.8.9-1.2 2.1-1.2 3.4v12.6h-3.4V25.3c0-1.4-.4-2.5-1.2-3.4-.8-.9-1.8-1.3-3.2-1.3-1.3 0-2.3.5-3.2 1.4-.9.9-1.3 2.1-1.3 3.3v12.6h-3.4V25.3c0-2.2.8-4.1 2.3-5.8 1.5-1.6 3.4-2.4 5.6-2.4 2.5 0 4.6 1 6.1 2.9 1.5-2 3.6-2.9 6.1-2.9 2.2 0 4 .8 5.6 2.4 1.5 1.6 2.3 3.5 2.3 5.8v12.6h-3.4zm23.4 0v-3.1c-2 2.3-4.5 3.4-7.5 3.4-2.8 0-5.3-1-7.3-3.1s-3-4.6-3-7.4c0-2.9 1-5.4 3.1-7.5 2.1-2.1 4.6-3.1 7.5-3.1 2.9 0 5.4 1 7.5 3.1 2.1 2.1 3.1 4.6 3.1 7.5v10.2h-3.4zm0-10.2c0-2-.7-3.6-2.1-5-1.4-1.4-3.1-2.1-5.1-2.1-1.9 0-3.6.7-5 2.1-1.4 1.4-2.1 3.1-2.1 5 0 2 .7 3.6 2.1 5.1 1.4 1.4 3.1 2.1 5 2.1s3.6-.7 5.1-2.1c1.4-1.5 2.1-3.2 2.1-5.1zm20.8 10.2V26c0-1.5-.5-2.8-1.6-3.9s-2.3-1.6-3.8-1.6-2.8.5-3.9 1.6-1.6 2.4-1.6 3.9v12H70V26c0-2.3.9-4.4 2.7-6.2 1.8-1.8 3.9-2.7 6.2-2.7 2.3 0 4.4.9 6.2 2.7 1.8 1.8 2.7 3.9 2.7 6.2v11.9h-3.5zm23.6 8.8c-2.1 2.1-4.6 3.1-7.5 3.1-1.7 0-3.4-.4-5-1.3s-2.9-2-3.8-3.5l2.9-1.9c1.5 2.2 3.4 3.2 6 3.2 2.3 0 4.1-.8 5.4-2.5 1.2-1.5 1.8-6.8 1.8-9.1-2 2.3-4.5 3.4-7.5 3.4-2.8 0-5.3-1-7.2-3.1-2-2.1-3-4.6-3-7.4 0-2.9 1-5.4 3.1-7.5 2.1-2.1 4.6-3.1 7.5-3.1 2.9 0 5.4 1 7.5 3.1 2.1 2.1 3.1 4.6 3.1 7.5v8.2c-.1 2.9-1.2 8.8-3.3 10.9zm-.3-19c0-2-.7-3.6-2.1-5-1.4-1.4-3.1-2.1-5.1-2.1-1.9 0-3.6.7-5 2.1-1.4 1.4-2.1 3.1-2.1 5 0 2 .7 3.6 2.1 5.1 1.4 1.4 3.1 2.1 5 2.1s3.6-.7 5.1-2.1c1.4-1.5 2.1-3.2 2.1-5.1z"/><g class="st1" opacity=".7"><path class="st2" d="M132.6 29.2c-4.5 0-8.1-3.6-8.1-8.1s3.6-8.1 8.1-8.1 8.1 3.6 8.1 8.1c0 4.4-3.6 8.1-8.1 8.1zm0-14.3c-3.4 0-6.1 2.7-6.1 6.1 0 3.4 2.7 6.1 6.1 6.1 3.4 0 6.1-2.7 6.1-6.1 0-3.3-2.7-6.1-6.1-6.1z"/></g><g class="st0" opacity=".5"><path class="st2" d="M126.6 9.7c-2.7 0-4.9-2.2-4.9-4.9s2.2-4.9 4.9-4.9 4.9 2.2 4.9 4.9c0 2.8-2.2 4.9-4.9 4.9zm0-8.2c-1.9 0-3.4 1.5-3.4 3.4s1.5 3.4 3.4 3.4 3.4-1.5 3.4-3.4-1.5-3.4-3.4-3.4z"/></g><path class="st2" d="M134.4 27.7c0 2.9-1 5.4-3.1 7.5-2.1 2.1-4.5 3.1-7.5 3.1-2.9 0-5.4-1-7.5-3.1-2.1-2.1-3.1-4.6-3.1-7.5 0-2.9 1-5.4 3.1-7.5 2.1-2.1 4.6-3.1 7.5-3.1 2.9 0 5.4 1 7.5 3.1 2.1 2.1 3.1 4.6 3.1 7.5zm-3.4 0c0-2-.7-3.6-2.1-5-1.4-1.4-3.1-2.1-5.1-2.1-1.9 0-3.6.7-5 2.1-1.4 1.4-2.1 3.1-2.1 5 0 2 .7 3.6 2.1 5.1 1.4 1.4 3.1 2.1 5 2.1s3.6-.7 5.1-2.1c1.4-1.5 2.1-3.2 2.1-5.1z"/></svg>